<svg width="118" height="33" viewBox="0 0 118 33" fill="none" xmlns="http://www.w3.org/2000/svg">
<path d="M57.3463 14.436V27H54.8263V18.828L51.4603 27H49.5523L46.1683 18.828V27H43.6483V14.436H46.5103L50.5063 23.778L54.5023 14.436H57.3463ZM61.1157 15.84C60.6717 15.84 60.2997 15.702 59.9997 15.426C59.7117 15.138 59.5677 14.784 59.5677 14.364C59.5677 13.944 59.7117 13.596 59.9997 13.32C60.2997 13.032 60.6717 12.888 61.1157 12.888C61.5597 12.888 61.9257 13.032 62.2137 13.32C62.5137 13.596 62.6637 13.944 62.6637 14.364C62.6637 14.784 62.5137 15.138 62.2137 15.426C61.9257 15.702 61.5597 15.84 61.1157 15.84ZM62.3577 17.028V27H59.8377V17.028H62.3577ZM70.3735 16.884C71.5615 16.884 72.5215 17.262 73.2535 18.018C73.9855 18.762 74.3515 19.806 74.3515 21.15V27H71.8315V21.492C71.8315 20.7 71.6335 20.094 71.2375 19.674C70.8415 19.242 70.3015 19.026 69.6175 19.026C68.9215 19.026 68.3695 19.242 67.9615 19.674C67.5655 20.094 67.3675 20.7 67.3675 21.492V27H64.8475V17.028H67.3675V18.27C67.7035 17.838 68.1295 17.502 68.6455 17.262C69.1735 17.01 69.7495 16.884 70.3735 16.884ZM76.0999 21.978C76.0999 20.97 76.2979 20.076 76.6939 19.296C77.1019 18.516 77.6539 17.916 78.3499 17.496C79.0459 17.076 79.8199 16.866 80.6719 16.866C81.3199 16.866 81.9379 17.01 82.5259 17.298C83.1139 17.574 83.5819 17.946 83.9299 18.414V13.68H86.4859V27H83.9299V25.524C83.6179 26.016 83.1799 26.412 82.6159 26.712C82.0519 27.012 81.3979 27.162 80.6539 27.162C79.8139 27.162 79.0459 26.946 78.3499 26.514C77.6539 26.082 77.1019 25.476 76.6939 24.696C76.2979 23.904 76.0999 22.998 76.0999 21.978ZM83.9479 22.014C83.9479 21.402 83.8279 20.88 83.5879 20.448C83.3479 20.004 83.0239 19.668 82.6159 19.44C82.2079 19.2 81.7699 19.08 81.3019 19.08C80.8339 19.08 80.4019 19.194 80.0059 19.422C79.6099 19.65 79.2859 19.986 79.0339 20.43C78.7939 20.862 78.6739 21.378 78.6739 21.978C78.6739 22.578 78.7939 23.106 79.0339 23.562C79.2859 24.006 79.6099 24.348 80.0059 24.588C80.4139 24.828 80.8459 24.948 81.3019 24.948C81.7699 24.948 82.2079 24.834 82.6159 24.606C83.0239 24.366 83.3479 24.03 83.5879 23.598C83.8279 23.154 83.9479 22.626 83.9479 22.014Z" fill="white"/>
<path d="M96.0751 20.556C96.7831 20.688 97.3651 21.042 97.8211 21.618C98.2771 22.194 98.5051 22.854 98.5051 23.598C98.5051 24.27 98.3371 24.864 98.0011 25.38C97.6771 25.884 97.2031 26.28 96.5791 26.568C95.9551 26.856 95.2171 27 94.3651 27H88.9471V14.436H94.1311C94.9831 14.436 95.7151 14.574 96.3271 14.85C96.9511 15.126 97.4191 15.51 97.7311 16.002C98.0551 16.494 98.2171 17.052 98.2171 17.676C98.2171 18.408 98.0191 19.02 97.6231 19.512C97.2391 20.004 96.7231 20.352 96.0751 20.556ZM91.4671 19.62H93.7711C94.3711 19.62 94.8331 19.488 95.1571 19.224C95.4811 18.948 95.6431 18.558 95.6431 18.054C95.6431 17.55 95.4811 17.16 95.1571 16.884C94.8331 16.608 94.3711 16.47 93.7711 16.47H91.4671V19.62ZM94.0051 24.948C94.6171 24.948 95.0911 24.804 95.4271 24.516C95.7751 24.228 95.9491 23.82 95.9491 23.292C95.9491 22.752 95.7691 22.332 95.4091 22.032C95.0491 21.72 94.5631 21.564 93.9511 21.564H91.4671V24.948H94.0051ZM104.941 27.162C103.981 27.162 103.117 26.952 102.349 26.532C101.581 26.1 100.975 25.494 100.531 24.714C100.099 23.934 99.8835 23.034 99.8835 22.014C99.8835 20.994 100.105 20.094 100.549 19.314C101.005 18.534 101.623 17.934 102.403 17.514C103.183 17.082 104.053 16.866 105.013 16.866C105.973 16.866 106.843 17.082 107.623 17.514C108.403 17.934 109.015 18.534 109.459 19.314C109.915 20.094 110.143 20.994 110.143 22.014C110.143 23.034 109.909 23.934 109.441 24.714C108.985 25.494 108.361 26.1 107.569 26.532C106.789 26.952 105.913 27.162 104.941 27.162ZM104.941 24.966C105.397 24.966 105.823 24.858 106.219 24.642C106.627 24.414 106.951 24.078 107.191 23.634C107.431 23.19 107.551 22.65 107.551 22.014C107.551 21.066 107.299 20.34 106.795 19.836C106.303 19.32 105.697 19.062 104.977 19.062C104.257 19.062 103.651 19.32 103.159 19.836C102.679 20.34 102.439 21.066 102.439 22.014C102.439 22.962 102.673 23.694 103.141 24.21C103.621 24.714 104.221 24.966 104.941 24.966ZM114.926 19.098V23.922C114.926 24.258 115.004 24.504 115.16 24.66C115.328 24.804 115.604 24.876 115.988 24.876H117.158V27H115.574C113.45 27 112.388 25.968 112.388 23.904V19.098H111.2V17.028H112.388V14.562H114.926V17.028H117.158V19.098H114.926Z" fill="#5CE1E6"/>
<path d="M0.876124 31.75L19.0526 0.983005L37.229 31.75H0.876124Z" fill="white" stroke="#5CE1E6"/>
<path d="M19.0526 12L25.9808 24.75H12.1243L19.0526 12Z" fill="#5CE1E6"/>
<path d="M4.51349 24.7344H12.1385" stroke="#5CE1E6" stroke-width="0.1" stroke-linecap="square"/>
<path d="M12.1307 24.7969V32.2031" stroke="#5CE1E6" stroke-width="0.1" stroke-linecap="square"/>
<path d="M25.9588 24.7188H33.5682" stroke="#5CE1E6" stroke-width="0.1" stroke-linecap="square"/>
<path d="M25.9276 24.7188V32.1406" stroke="#5CE1E6" stroke-width="0.1" stroke-linecap="square"/>
</svg>
